<?xml version="1.0" encoding="utf-8"?>
<!-- Generator: Adobe Illustrator 21.0.2, SVG Export Plug-In . SVG Version: 6.00 Build 0)  -->
<svg version="1.1" id="Layer_1" xmlns="http://www.w3.org/2000/svg" xmlns:xlink="http://www.w3.org/1999/xlink" x="0px" y="0px"
	 width="137.4px" height="110px" viewBox="0 0 137.4 110" style="enable-background:new 0 0 137.4 110;" xml:space="preserve">
<style type="text/css">
	.st0{fill:#18AAC3;}
</style>
<circle id="XMLID_893_" class="st0" cx="44.3" cy="99.1" r="10.9"/>
<ellipse id="XMLID_891_" class="st0" cx="99.7" cy="99.1" rx="10.9" ry="10.9"/>
<path id="XMLID_889_" class="st0" d="M114.8,76.5c0,1.4-0.6,2.8-1.5,3.8c-0.9,0.9-2.2,1.7-3.6,1.7H36.5c0,0-3.7,0.3-5-2.5L0.4,7.1
	c-1.1-2.6,0.1-5.6,2.7-6.7C3.7,0.1,4.4,0,5.1,0c2,0,3.9,0.2,4.7,2.2l29.7,68.3h70.2C112.5,70.4,114.8,73.7,114.8,76.5z"/>
<path id="XMLID_887_" class="st0" d="M137.1,17.6l-4,9.3H26.8l-3.9-9.6c-0.3-0.6-0.6-1.9,0.9-1.9h112.4
	C137.8,15.4,137.4,17,137.1,17.6z"/>
<path id="XMLID_885_" class="st0" d="M129.1,36.6l-4,8.8l-90,0.2l-4.2-9.5c-0.3-0.6,0.2-1.2,0.9-1.2h96.4
	C128.9,34.9,129.3,36,129.1,36.6z"/>
<path id="XMLID_883_" class="st0" d="M120.9,55.9l-4,8.6L43,64.6l-3.9-9c-0.3-0.6,0.2-1.3,0.9-1.3h80
	C120.7,54.4,121.2,55.3,120.9,55.9z"/>
</svg>
