<?xml version="1.0" encoding="utf-8"?>
<!-- Generator: Adobe Illustrator 22.0.1, SVG Export Plug-In . SVG Version: 6.00 Build 0)  -->
<svg version="1.1" id="Layer_1" xmlns="http://www.w3.org/2000/svg" xmlns:xlink="http://www.w3.org/1999/xlink" x="0px" y="0px"
	 viewBox="0 0 23.9 19" style="enable-background:new 0 0 23.9 19;" xml:space="preserve">
<style type="text/css">
	.st0{fill:#555D66;}
</style>
<g>
	<circle id="XMLID_893_" class="st0" cx="7.8" cy="17.1" r="1.9"/>
	<ellipse id="XMLID_891_" class="st0" cx="17.3" cy="17.1" rx="1.9" ry="1.9"/>
	<path id="XMLID_889_" class="st0" d="M19.9,13.2c0,0.2-0.1,0.5-0.3,0.7c-0.2,0.2-0.4,0.3-0.6,0.3H6.4c0,0-0.6,0.1-0.9-0.4L0.2,1.3
		c-0.2-0.4,0-1,0.5-1.2c0.1,0,0.2,0,0.3,0c0.3,0,0.7,0,0.8,0.4L7,12.2h12C19.5,12.2,19.9,12.8,19.9,13.2z"/>
	<path id="XMLID_887_" class="st0" d="M23.7,3.1L23,4.7H4.8L4.1,3.1C4.1,3,4,2.7,4.3,2.7h19.3C23.9,2.7,23.8,3,23.7,3.1z"/>
	<path id="XMLID_885_" class="st0" d="M22.4,6.4l-0.7,1.5H6.2L5.5,6.3c-0.1-0.1,0-0.2,0.2-0.2h16.6C22.3,6.1,22.4,6.3,22.4,6.4z"/>
	<path id="XMLID_883_" class="st0" d="M20.9,9.7l-0.7,1.5H7.5L6.9,9.7C6.8,9.5,6.9,9.4,7,9.4h13.7C20.9,9.4,21,9.6,20.9,9.7z"/>
</g>
</svg>
